<svg xmlns="http://www.w3.org/2000/svg" viewBox="0 0 400 300" width="400" height="300">
  <!-- Background -->
  <rect width="400" height="300" fill="#f5e6d3"/>
  <!-- Decorative border frame -->
  <rect x="20" y="20" width="360" height="260" fill="none" stroke="#8B6914" stroke-width="3" rx="6"/>
  <rect x="26" y="26" width="348" height="248" fill="none" stroke="#8B6914" stroke-width="1" rx="4" opacity="0.5"/>
  <!-- Grid dividers -->
  <line x1="200" y1="32" x2="200" y2="268" stroke="#8B6914" stroke-width="2.5"/>
  <line x1="32" y1="150" x2="368" y2="150" stroke="#8B6914" stroke-width="2.5"/>
  <!-- Center ornament -->
  <circle cx="200" cy="150" r="8" fill="#8B6914"/>
  <circle cx="200" cy="150" r="4" fill="#f5e6d3"/>

  <!-- SCROLL 1 - Top Left (Shekalim) -->
  <rect x="38" y="38" width="148" height="98" fill="#e8d0a0" rx="4"/>
  <rect x="34" y="35" width="10" height="104" fill="#8B6914" rx="5"/>
  <circle cx="39" cy="35" r="7" fill="#744210"/>
  <circle cx="39" cy="139" r="7" fill="#744210"/>
  <rect x="182" y="35" width="10" height="104" fill="#8B6914" rx="5"/>
  <circle cx="187" cy="35" r="7" fill="#744210"/>
  <circle cx="187" cy="139" r="7" fill="#744210"/>
  <rect x="52" y="52" width="88" height="5" fill="#744210" rx="2" opacity="0.55"/>
  <rect x="52" y="64" width="88" height="5" fill="#744210" rx="2" opacity="0.55"/>
  <rect x="52" y="76" width="70" height="5" fill="#744210" rx="2" opacity="0.55"/>
  <rect x="52" y="88" width="88" height="5" fill="#744210" rx="2" opacity="0.55"/>
  <rect x="52" y="100" width="60" height="5" fill="#744210" rx="2" opacity="0.55"/>
  <rect x="52" y="112" width="88" height="5" fill="#744210" rx="2" opacity="0.55"/>
  <circle cx="140" cy="95" r="18" fill="#8B6914" opacity="0.25" stroke="#8B6914" stroke-width="1.5"/>
  <circle cx="140" cy="95" r="10" fill="#8B6914" opacity="0.4"/>

  <!-- SCROLL 2 - Top Right (Zachor) -->
  <rect x="218" y="38" width="148" height="98" fill="#e8d0a0" rx="4"/>
  <rect x="214" y="35" width="10" height="104" fill="#8B6914" rx="5"/>
  <circle cx="219" cy="35" r="7" fill="#744210"/>
  <circle cx="219" cy="139" r="7" fill="#744210"/>
  <rect x="362" y="35" width="10" height="104" fill="#8B6914" rx="5"/>
  <circle cx="367" cy="35" r="7" fill="#744210"/>
  <circle cx="367" cy="139" r="7" fill="#744210"/>
  <rect x="232" y="52" width="88" height="5" fill="#744210" rx="2" opacity="0.55"/>
  <rect x="232" y="64" width="88" height="5" fill="#744210" rx="2" opacity="0.55"/>
  <rect x="232" y="76" width="70" height="5" fill="#744210" rx="2" opacity="0.55"/>
  <rect x="232" y="88" width="88" height="5" fill="#744210" rx="2" opacity="0.55"/>
  <rect x="232" y="100" width="60" height="5" fill="#744210" rx="2" opacity="0.55"/>
  <rect x="232" y="112" width="88" height="5" fill="#744210" rx="2" opacity="0.55"/>
  <rect x="314" y="68" width="6" height="40" fill="#1a365d" rx="2"/>
  <rect x="305" y="80" width="24" height="5" fill="#1a365d" rx="2"/>
  <polygon points="317,68 323,68 320,58" fill="#1a365d"/>

  <!-- SCROLL 3 - Bottom Left (Parah) -->
  <rect x="38" y="160" width="148" height="98" fill="#e8d0a0" rx="4"/>
  <rect x="34" y="157" width="10" height="104" fill="#8B6914" rx="5"/>
  <circle cx="39" cy="157" r="7" fill="#744210"/>
  <circle cx="39" cy="261" r="7" fill="#744210"/>
  <rect x="182" y="157" width="10" height="104" fill="#8B6914" rx="5"/>
  <circle cx="187" cy="157" r="7" fill="#744210"/>
  <circle cx="187" cy="261" r="7" fill="#744210"/>
  <rect x="52" y="174" width="88" height="5" fill="#744210" rx="2" opacity="0.55"/>
  <rect x="52" y="186" width="88" height="5" fill="#744210" rx="2" opacity="0.55"/>
  <rect x="52" y="198" width="70" height="5" fill="#744210" rx="2" opacity="0.55"/>
  <rect x="52" y="210" width="88" height="5" fill="#744210" rx="2" opacity="0.55"/>
  <rect x="52" y="222" width="60" height="5" fill="#744210" rx="2" opacity="0.55"/>
  <rect x="52" y="234" width="88" height="5" fill="#744210" rx="2" opacity="0.55"/>
  <ellipse cx="140" cy="214" rx="16" ry="10" fill="#c0392b" opacity="0.5"/>
  <circle cx="127" cy="210" r="8" fill="#c0392b" opacity="0.5"/>
  <rect x="128" y="222" width="4" height="10" fill="#c0392b" rx="2" opacity="0.5"/>
  <rect x="137" y="222" width="4" height="10" fill="#c0392b" rx="2" opacity="0.5"/>
  <rect x="146" y="222" width="4" height="10" fill="#c0392b" rx="2" opacity="0.5"/>

  <!-- SCROLL 4 - Bottom Right (Hachodesh) -->
  <rect x="218" y="160" width="148" height="98" fill="#e8d0a0" rx="4"/>
  <rect x="214" y="157" width="10" height="104" fill="#8B6914" rx="5"/>
  <circle cx="219" cy="157" r="7" fill="#744210"/>
  <circle cx="219" cy="261" r="7" fill="#744210"/>
  <rect x="362" y="157" width="10" height="104" fill="#8B6914" rx="5"/>
  <circle cx="367" cy="157" r="7" fill="#744210"/>
  <circle cx="367" cy="261" r="7" fill="#744210"/>
  <rect x="232" y="174" width="88" height="5" fill="#744210" rx="2" opacity="0.55"/>
  <rect x="232" y="186" width="88" height="5" fill="#744210" rx="2" opacity="0.55"/>
  <rect x="232" y="198" width="70" height="5" fill="#744210" rx="2" opacity="0.55"/>
  <rect x="232" y="210" width="88" height="5" fill="#744210" rx="2" opacity="0.55"/>
  <rect x="232" y="222" width="60" height="5" fill="#744210" rx="2" opacity="0.55"/>
  <rect x="232" y="234" width="88" height="5" fill="#744210" rx="2" opacity="0.55"/>
  <path d="M 330 190 A 22 22 0 1 1 330 240 A 14 14 0 1 0 330 190" fill="#1a365d" opacity="0.45"/>
</svg>
