<svg xmlns="http://www.w3.org/2000/svg" viewBox="0 0 400 300" width="400" height="300">
  <!-- Background parchment -->
  <rect width="400" height="300" fill="#f5e6d3" rx="12"/>
  <ellipse cx="200" cy="140" rx="130" ry="110" fill="#8B6914" opacity="0.05"/>
  <!-- Pillar base -->
  <rect x="190" y="220" width="20" height="50" rx="3" fill="#744210"/>
  <rect x="165" y="265" width="70" height="12" rx="4" fill="#744210"/>
  <rect x="155" y="272" width="90" height="10" rx="3" fill="#8B6914" opacity="0.6"/>
  <!-- Central rod -->
  <rect x="197" y="80" width="6" height="145" rx="3" fill="#2d3748"/>
  <rect x="198" y="82" width="3" height="140" rx="1.5" fill="#8B6914" opacity="0.3"/>
  <!-- Horizontal beam -->
  <rect x="80" y="94" width="240" height="10" rx="5" fill="#2d3748"/>
  <rect x="82" y="95" width="236" height="4" rx="2" fill="#8B6914" opacity="0.25"/>
  <!-- Center pivot -->
  <circle cx="200" cy="99" r="14" fill="#744210"/>
  <circle cx="200" cy="99" r="10" fill="#8B6914"/>
  <circle cx="200" cy="99" r="5" fill="#2d3748"/>
  <circle cx="197" cy="96" r="2" fill="#f5e6d3" opacity="0.5"/>
  <!-- Left chain -->
  <line x1="100" y1="104" x2="90" y2="185" stroke="#744210" stroke-width="3" stroke-linecap="round"/>
  <!-- Left pan -->
  <ellipse cx="90" cy="187" rx="42" ry="8" fill="#8B6914" opacity="0.6"/>
  <ellipse cx="90" cy="185" rx="40" ry="6" fill="#8B6914"/>
  <!-- Left pan strings -->
  <line x1="52" y1="188" x2="90" y2="148" stroke="#744210" stroke-width="2.5" stroke-linecap="round"/>
  <line x1="128" y1="188" x2="90" y2="148" stroke="#744210" stroke-width="2.5" stroke-linecap="round"/>
  <!-- Left pan weight coins -->
  <ellipse cx="80" cy="177" rx="12" ry="6" fill="#744210"/>
  <ellipse cx="80" cy="175" rx="12" ry="6" fill="#8B6914"/>
  <ellipse cx="78" cy="173" rx="4" ry="2" fill="#f5e6d3" opacity="0.3"/>
  <ellipse cx="100" cy="178" rx="9" ry="5" fill="#744210"/>
  <ellipse cx="100" cy="176" rx="9" ry="5" fill="#8B6914"/>
  <!-- Right chain -->
  <line x1="300" y1="104" x2="310" y2="192" stroke="#744210" stroke-width="3" stroke-linecap="round"/>
  <!-- Right pan -->
  <ellipse cx="310" cy="195" rx="42" ry="8" fill="#8B6914" opacity="0.6"/>
  <ellipse cx="310" cy="193" rx="40" ry="6" fill="#8B6914"/>
  <!-- Right pan strings -->
  <line x1="272" y1="196" x2="310" y2="156" stroke="#744210" stroke-width="2.5" stroke-linecap="round"/>
  <line x1="348" y1="196" x2="310" y2="156" stroke="#744210" stroke-width="2.5" stroke-linecap="round"/>
  <!-- Right pan weight -->
  <ellipse cx="310" cy="184" rx="11" ry="6" fill="#744210"/>
  <ellipse cx="310" cy="182" rx="11" ry="6" fill="#8B6914"/>
  <ellipse cx="307" cy="180" rx="4" ry="2" fill="#f5e6d3" opacity="0.3"/>
  <!-- Finial -->
  <circle cx="200" cy="78" r="9" fill="#1a365d"/>
  <circle cx="200" cy="78" r="5.5" fill="#8B6914"/>
  <circle cx="198" cy="76" r="2" fill="#f5e6d3" opacity="0.5"/>
  <!-- Stars -->
  <circle cx="60" cy="60" r="3" fill="#8B6914" opacity="0.35"/>
  <circle cx="340" cy="55" r="3" fill="#8B6914" opacity="0.35"/>
  <circle cx="200" cy="40" r="3.5" fill="#1a365d" opacity="0.3"/>
  <circle cx="130" cy="45" r="2.5" fill="#8B6914" opacity="0.3"/>
  <circle cx="270" cy="48" r="2.5" fill="#8B6914" opacity="0.3"/>
  <ellipse cx="200" cy="283" rx="80" ry="6" fill="#744210" opacity="0.14"/>
</svg>
