<svg xmlns="http://www.w3.org/2000/svg" viewBox="0 0 400 300">
  <defs>
    <linearGradient id="bgGrad" x1="0" y1="0" x2="0" y2="1">
      <stop offset="0%" stop-color="#f5e6d3"/>
      <stop offset="100%" stop-color="#e0c9a6"/>
    </linearGradient>
    <linearGradient id="floorGrad" x1="0" y1="0" x2="0" y2="1">
      <stop offset="0%" stop-color="#c8a878"/>
      <stop offset="100%" stop-color="#a07848"/>
    </linearGradient>
    <radialGradient id="glowCenter" cx="50%" cy="50%" r="50%">
      <stop offset="0%" stop-color="#f5e6d3" stop-opacity="0.6"/>
      <stop offset="100%" stop-color="#e0c9a6" stop-opacity="0"/>
    </radialGradient>
  </defs>
  <!-- Background -->
  <rect width="400" height="300" fill="url(#bgGrad)"/>
  <!-- Soft glow center -->
  <ellipse cx="200" cy="180" rx="180" ry="100" fill="url(#glowCenter)"/>
  <!-- Floor -->
  <rect x="0" y="252" width="400" height="48" fill="url(#floorGrad)"/>
  <line x1="0" y1="252" x2="400" y2="252" stroke="#8B6914" stroke-width="1.5" opacity="0.4"/>
  <!-- Decorative arch top -->
  <path d="M 20 160 Q 200 50 380 160" fill="none" stroke="#8B6914" stroke-width="1.5" opacity="0.25" stroke-dasharray="8,5"/>

  <!-- ===== BACK ROW - 5 figures ===== -->
  <!-- Back person 1 -->
  <circle cx="60" cy="162" r="11" fill="#8B6914" opacity="0.7"/>
  <rect x="51" y="173" width="18" height="30" rx="5" fill="#1a365d" opacity="0.6"/>
  <line x1="51" y1="176" x2="69" y2="176" stroke="#f5e6d3" stroke-width="2" opacity="0.3"/>
  <!-- Back person 2 -->
  <circle cx="108" cy="160" r="11" fill="#744210" opacity="0.7"/>
  <rect x="99" y="171" width="18" height="32" rx="5" fill="#2d3748" opacity="0.6"/>
  <line x1="99" y1="174" x2="117" y2="174" stroke="#8B6914" stroke-width="2" opacity="0.4"/>
  <!-- Back person 3 center -->
  <circle cx="200" cy="156" r="12" fill="#8B6914" opacity="0.75"/>
  <rect x="190" y="168" width="20" height="36" rx="6" fill="#1a365d" opacity="0.65"/>
  <line x1="190" y1="172" x2="210" y2="172" stroke="#f5e6d3" stroke-width="2" opacity="0.35"/>
  <!-- Back person 4 -->
  <circle cx="292" cy="160" r="11" fill="#744210" opacity="0.7"/>
  <rect x="283" y="171" width="18" height="32" rx="5" fill="#2d3748" opacity="0.6"/>
  <line x1="283" y1="174" x2="301" y2="174" stroke="#8B6914" stroke-width="2" opacity="0.4"/>
  <!-- Back person 5 -->
  <circle cx="340" cy="162" r="11" fill="#8B6914" opacity="0.7"/>
  <rect x="331" y="173" width="18" height="30" rx="5" fill="#1a365d" opacity="0.6"/>
  <line x1="331" y1="176" x2="349" y2="176" stroke="#f5e6d3" stroke-width="2" opacity="0.3"/>

  <!-- ===== FRONT ROW - 5 figures ===== -->
  <!-- Front person 1 -->
  <ellipse cx="76" cy="246" rx="12" ry="5" fill="#744210" opacity="0.25"/>
  <circle cx="76" cy="188" r="14" fill="#8B6914"/>
  <rect x="63" y="202" width="26" height="50" rx="7" fill="#1a365d"/>
  <line x1="63" y1="207" x2="89" y2="207" stroke="#f5e6d3" stroke-width="2.5" opacity="0.35"/>
  <line x1="63" y1="243" x2="89" y2="243" stroke="#f5e6d3" stroke-width="2" opacity="0.3"/>
  <!-- Small prayer book -->
  <rect x="66" y="228" width="12" height="16" rx="2" fill="#8B6914" opacity="0.7"/>
  <line x1="72" y1="230" x2="72" y2="242" stroke="#f5e6d3" stroke-width="0.8" opacity="0.5"/>

  <!-- Front person 2 -->
  <ellipse cx="130" cy="248" rx="12" ry="5" fill="#744210" opacity="0.25"/>
  <circle cx="130" cy="185" r="14" fill="#744210"/>
  <rect x="117" y="199" width="26" height="53" rx="7" fill="#2d3748"/>
  <line x1="117" y1="204" x2="143" y2="204" stroke="#8B6914" stroke-width="2.5" opacity="0.5"/>
  <line x1="117" y1="244" x2="143" y2="244" stroke="#8B6914" stroke-width="2" opacity="0.4"/>
  <rect x="120" y="225" width="12" height="16" rx="2" fill="#8B6914" opacity="0.7"/>
  <line x1="126" y1="227" x2="126" y2="239" stroke="#f5e6d3" stroke-width="0.8" opacity="0.5"/>

  <!-- Front person 3 CENTER LEADER -->
  <ellipse cx="200" cy="250" rx="14" ry="5" fill="#744210" opacity="0.3"/>
  <circle cx="200" cy="178" r="17" fill="#1a365d"/>
  <circle cx="200" cy="178" r="14" fill="#8B6914"/>
  <!-- Head covering highlight -->
  <ellipse cx="200" cy="169" rx="11" ry="5" fill="#c8961a" opacity="0.45"/>
  <rect x="185" y="195" width="30" height="58" rx="8" fill="#1a365d"/>
  <!-- Tallit stripes leader -->
  <line x1="185" y1="201" x2="215" y2="201" stroke="#8B6914" stroke-width="3" opacity="0.7"/>
  <line x1="185" y1="244" x2="215" y2="244" stroke="#8B6914" stroke-width="3" opacity="0.7"/>
  <!-- Open book / Torah -->
  <rect x="187" y="220" width="26" height="20" rx="3" fill="#f5e6d3"/>
  <line x1="200" y1="220" x2="200" y2="240" stroke="#8B6914" stroke-width="1.2"/>
  <line x1="189" y1="226" x2="199" y2="226" stroke="#8B6914" stroke-width="0.7" opacity="0.5"/>
  <line x1="189" y1="231" x2="199" y2="231" stroke="#8B6914" stroke-width="0.7" opacity="0.5"/>
  <line x1="189" y1="236" x2="199" y2="236" stroke="#8B6914" stroke-width="0.7" opacity="0.5"/>
  <line x1="201" y1="226" x2="211" y2="226" stroke="#8B6914" stroke-width="0.7" opacity="0.5"/>
  <line x1="201" y1="231" x2="211" y2="231" stroke="#8B6914" stroke-width="0.7" opacity="0.5"/>
  <line x1="201" y1="236" x2="211" y2="236" stroke="#8B6914" stroke-width="0.7" opacity="0.5"/>

  <!-- Front person 4 -->
  <ellipse cx="270" cy="248" rx="12" ry="5" fill="#744210" opacity="0.25"/>
  <circle cx="270" cy="185" r="14" fill="#744210"/>
  <rect x="257" y="199" width="26" height="53" rx="7" fill="#2d3748"/>
  <line x1="257" y1="204" x2="283" y2="204" stroke="#8B6914" stroke-width="2.5" opacity="0.5"/>
  <line x1="257" y1="244" x2="283" y2="244" stroke="#8B6914" stroke-width="2" opacity="0.4"/>
  <rect x="260" y="225" width="12" height="16" rx="2" fill="#8B6914" opacity="0.7"/>
  <line x1="266" y1="227" x2="266" y2="239" stroke="#f5e6d3" stroke-width="0.8" opacity="0.5"/>

  <!-- Front person 5 -->
  <ellipse cx="324" cy="246" rx="12" ry="5" fill="#744210" opacity="0.25"/>
  <circle cx="324" cy="188" r="14" fill="#8B6914"/>
  <rect x="311" y="202" width="26" height="50" rx="7" fill="#1a365d"/>
  <line x1="311" y1="207" x2="337" y2="207" stroke="#f5e6d3" stroke-width="2.5" opacity="0.35"/>
  <line x1="311" y1="243" x2="337" y2="243" stroke="#f5e6d3" stroke-width="2" opacity="0.3"/>
  <rect x="314" y="228" width="12" height="16" rx="2" fill="#8B6914" opacity="0.7"/>
  <line x1="320" y1="230" x2="320" y2="242" stroke="#f5e6d3" stroke-width="0.8" opacity="0.5"/>

  <!-- Menorah accent at top -->
  <rect x="196" y="20" width="8" height="18" fill="#8B6914" opacity="0.45"/>
  <rect x="176" y="28" width="48" height="4" rx="2" fill="#8B6914" opacity="0.45"/>
  <rect x="176" y="20" width="4" height="12" fill="#8B6914" opacity="0.45"/>
  <rect x="186" y="24" width="4" height="8" fill="#8B6914" opacity="0.45"/>
  <rect x="210" y="24" width="4" height="8" fill="#8B6914" opacity="0.45"/>
  <rect x="220" y="20" width="4" height="12" fill="#8B6914" opacity="0.45"/>
  <!-- Flames -->
  <ellipse cx="178" cy="18" rx="3" ry="4" fill="#f5e6d3" opacity="0.7"/>
  <ellipse cx="188" cy="22" rx="2.5" ry="3.5" fill="#f5e6d3" opacity="0.65"/>
  <ellipse cx="200" cy="16" rx="3.5" ry="5" fill="#f5e6d3" opacity="0.9"/>
  <ellipse cx="212" cy="22" rx="2.5" ry="3.5" fill="#f5e6d3" opacity="0.65"/>
  <ellipse cx="222" cy="18" rx="3" ry="4" fill="#f5e6d3" opacity="0.7"/>
</svg>
