<svg xmlns="http://www.w3.org/2000/svg" width="800" height="400" viewBox="0 0 800 400">
  <defs>
    <linearGradient id="bg" x1="0%" y1="0%" x2="100%" y2="100%">
      <stop offset="0%" style="stop-color:#2d1f4e"/>
      <stop offset="100%" style="stop-color:#1a1028"/>
    </linearGradient>
    <linearGradient id="gold" x1="0%" y1="0%" x2="100%" y2="100%">
      <stop offset="0%" style="stop-color:#f0d78c"/>
      <stop offset="100%" style="stop-color:#c9a227"/>
    </linearGradient>
    <radialGradient id="glow" cx="50%" cy="30%" r="50%">
      <stop offset="0%" style="stop-color:#f0d78c" stop-opacity="0.4"/>
      <stop offset="100%" style="stop-color:#c9a227" stop-opacity="0"/>
    </radialGradient>
  </defs>
  <rect width="800" height="400" fill="url(#bg)"/>
  <!-- Divine glow -->
  <ellipse cx="400" cy="80" rx="300" ry="100" fill="url(#glow)"/>
  <!-- Seven figures representing the prophetesses -->
  <g fill="url(#gold)">
    <!-- Row of 7 women figures -->
    <g transform="translate(100, 80)">
      <circle cx="0" cy="0" r="20"/>
      <path d="M-15 25 Q0 20 15 25 L20 90 L-20 90 Z"/>
      <path d="M-12 -25 Q0 -35 12 -25" fill="none" stroke="url(#gold)" stroke-width="3"/>
    </g>
    <g transform="translate(200, 80)">
      <circle cx="0" cy="0" r="20"/>
      <path d="M-15 25 Q0 20 15 25 L20 90 L-20 90 Z"/>
      <path d="M-12 -25 Q0 -35 12 -25" fill="none" stroke="url(#gold)" stroke-width="3"/>
    </g>
    <g transform="translate(300, 80)">
      <circle cx="0" cy="0" r="20"/>
      <path d="M-15 25 Q0 20 15 25 L20 90 L-20 90 Z"/>
      <path d="M-12 -25 Q0 -35 12 -25" fill="none" stroke="url(#gold)" stroke-width="3"/>
    </g>
    <g transform="translate(400, 70)">
      <circle cx="0" cy="0" r="22"/>
      <path d="M-17 27 Q0 22 17 27 L22 100 L-22 100 Z"/>
      <path d="M-14 -27 Q0 -38 14 -27" fill="none" stroke="url(#gold)" stroke-width="3"/>
    </g>
    <g transform="translate(500, 80)">
      <circle cx="0" cy="0" r="20"/>
      <path d="M-15 25 Q0 20 15 25 L20 90 L-20 90 Z"/>
      <path d="M-12 -25 Q0 -35 12 -25" fill="none" stroke="url(#gold)" stroke-width="3"/>
    </g>
    <g transform="translate(600, 80)">
      <circle cx="0" cy="0" r="20"/>
      <path d="M-15 25 Q0 20 15 25 L20 90 L-20 90 Z"/>
      <path d="M-12 -25 Q0 -35 12 -25" fill="none" stroke="url(#gold)" stroke-width="3"/>
    </g>
    <g transform="translate(700, 80)">
      <circle cx="0" cy="0" r="20"/>
      <path d="M-15 25 Q0 20 15 25 L20 90 L-20 90 Z"/>
      <path d="M-12 -25 Q0 -35 12 -25" fill="none" stroke="url(#gold)" stroke-width="3"/>
    </g>
  </g>
  <!-- Stars representing prophecy -->
  <g fill="#f0d78c" opacity="0.6">
    <polygon points="150,200 153,210 163,210 155,216 158,226 150,220 142,226 145,216 137,210 147,210"/>
    <polygon points="280,220 283,230 293,230 285,236 288,246 280,240 272,246 275,236 267,230 277,230"/>
    <polygon points="400,190 403,200 413,200 405,206 408,216 400,210 392,216 395,206 387,200 397,200"/>
    <polygon points="520,215 523,225 533,225 525,231 528,241 520,235 512,241 515,231 507,225 517,225"/>
    <polygon points="650,205 653,215 663,215 655,221 658,231 650,225 642,231 645,221 637,215 647,215"/>
  </g>
  <!-- Title -->
  <text x="400" y="300" text-anchor="middle" font-family="David, serif" font-size="32" fill="#f0e6d3" direction="rtl">שבע נביאות</text>
  <text x="400" y="340" text-anchor="middle" font-family="David, serif" font-size="20" fill="#9988aa" direction="rtl">שרה, מרים, דבורה, חנה, אביגיל, חולדה ואסתר</text>
</svg>