<svg xmlns="http://www.w3.org/2000/svg" viewBox="0 0 400 300" width="400" height="300">
  <!-- Background parchment -->
  <rect width="400" height="300" fill="#f5e6d3" rx="12"/>
  <ellipse cx="200" cy="160" rx="140" ry="100" fill="#8B6914" opacity="0.06"/>
  <!-- Crown base band -->
  <rect x="80" y="195" width="240" height="38" rx="6" fill="#744210"/>
  <rect x="84" y="199" width="232" height="30" rx="4" fill="#8B6914"/>
  <!-- Band gems -->
  <ellipse cx="130" cy="214" rx="10" ry="8" fill="#1a365d"/>
  <ellipse cx="200" cy="214" rx="10" ry="8" fill="#1a365d"/>
  <ellipse cx="270" cy="214" rx="10" ry="8" fill="#1a365d"/>
  <circle cx="165" cy="214" r="4" fill="#f5e6d3"/>
  <circle cx="235" cy="214" r="4" fill="#f5e6d3"/>
  <!-- Crown body -->
  <polygon points="80,197 110,120 200,90 290,120 320,197" fill="#744210"/>
  <polygon points="84,195 113,122 200,94 287,122 316,195" fill="#8B6914"/>
  <polygon points="100,195 126,140 200,112 274,140 300,195" fill="#f5e6d3" opacity="0.08"/>
  <!-- Left spike -->
  <polygon points="100,160 80,70 125,145" fill="#744210"/>
  <polygon points="103,158 83,73 122,144" fill="#8B6914"/>
  <circle cx="80" cy="68" r="11" fill="#1a365d"/>
  <circle cx="80" cy="68" r="7" fill="#2d3748"/>
  <circle cx="77" cy="65" r="2.5" fill="#f5e6d3" opacity="0.6"/>
  <!-- Center spike -->
  <polygon points="170,140 200,40 230,140" fill="#744210"/>
  <polygon points="173,140 200,44 227,140" fill="#8B6914"/>
  <circle cx="200" cy="38" r="14" fill="#1a365d"/>
  <circle cx="200" cy="38" r="9" fill="#2d3748"/>
  <circle cx="196" cy="34" r="3" fill="#f5e6d3" opacity="0.6"/>
  <!-- Right spike -->
  <polygon points="275,145 320,70 300,160" fill="#744210"/>
  <polygon points="278,144 317,73 297,158" fill="#8B6914"/>
  <circle cx="320" cy="68" r="11" fill="#1a365d"/>
  <circle cx="320" cy="68" r="7" fill="#2d3748"/>
  <circle cx="317" cy="65" r="2.5" fill="#f5e6d3" opacity="0.6"/>
  <!-- Crown gems -->
  <ellipse cx="200" cy="160" rx="18" ry="14" fill="#1a365d"/>
  <ellipse cx="200" cy="160" rx="12" ry="9" fill="#2d3748"/>
  <ellipse cx="196" cy="156" rx="4" ry="3" fill="#f5e6d3" opacity="0.5"/>
  <ellipse cx="140" cy="165" rx="12" ry="9" fill="#1a365d"/>
  <ellipse cx="140" cy="165" rx="7" ry="5.5" fill="#2d3748"/>
  <ellipse cx="260" cy="165" rx="12" ry="9" fill="#1a365d"/>
  <ellipse cx="260" cy="165" rx="7" ry="5.5" fill="#2d3748"/>
  <!-- Band lines -->
  <line x1="90" y1="207" x2="310" y2="207" stroke="#744210" stroke-width="1.5" opacity="0.5"/>
  <line x1="90" y1="221" x2="310" y2="221" stroke="#744210" stroke-width="1.5" opacity="0.5"/>
  <!-- Shadow -->
  <ellipse cx="200" cy="238" rx="115" ry="8" fill="#744210" opacity="0.18"/>
</svg>
