<svg xmlns="http://www.w3.org/2000/svg" viewBox="0 0 400 300" width="400" height="300">
  <!-- Background -->
  <rect width="400" height="300" fill="#f5e6d3"/>
  <!-- Arch background -->
  <path d="M 0 300 L 0 160 Q 200 40 400 160 L 400 300 Z" fill="#e8d5bc" opacity="0.6"/>

  <!-- === SHOFAR (left) === -->
  <g transform="translate(42, 60) rotate(30)">
    <path d="M 20 10 Q 55 5 80 20 Q 100 35 90 65 Q 80 90 60 100 Q 45 108 35 95 Q 25 82 38 68 Q 50 55 65 60 Q 75 65 72 78"
          fill="none" stroke="#8B6914" stroke-width="16" stroke-linecap="round"/>
    <path d="M 20 10 Q 55 5 80 20 Q 100 35 90 65 Q 80 90 60 100 Q 45 108 35 95 Q 25 82 38 68 Q 50 55 65 60 Q 75 65 72 78"
          fill="none" stroke="#a07820" stroke-width="10" stroke-linecap="round"/>
    <ellipse cx="20" cy="10" rx="8" ry="6" fill="#744210" transform="rotate(-30 20 10)"/>
    <path d="M 58 18 Q 62 22 56 28" fill="none" stroke="#744210" stroke-width="2.5" opacity="0.7"/>
    <path d="M 74 32 Q 80 38 74 46" fill="none" stroke="#744210" stroke-width="2.5" opacity="0.7"/>
    <path d="M 30 88 Q 14 80 10 65 Q 6 50 15 40" fill="none" stroke="#8B6914" stroke-width="2" stroke-linecap="round" opacity="0.5"/>
    <path d="M 32 98 Q 8 88 2 68 Q -4 48 10 32" fill="none" stroke="#8B6914" stroke-width="1.5" stroke-linecap="round" opacity="0.3"/>
  </g>

  <!-- === LULAV + ETROG (center) === -->
  <!-- Etrog -->
  <ellipse cx="196" cy="222" rx="22" ry="28" fill="#e8b830" stroke="#8B6914" stroke-width="1.5"/>
  <ellipse cx="196" cy="196" rx="5" ry="8" fill="#c4961a" stroke="#8B6914" stroke-width="1"/>
  <ellipse cx="190" cy="215" rx="8" ry="10" fill="#f0c840" opacity="0.4"/>
  <!-- Lulav stalk -->
  <rect x="210" y="80" width="8" height="145" fill="#4a7a30" rx="4"/>
  <ellipse cx="214" cy="90" rx="5" ry="18" fill="#5a8a40" transform="rotate(-8 214 90)"/>
  <ellipse cx="214" cy="105" rx="5" ry="18" fill="#5a8a40" transform="rotate(8 214 105)"/>
  <ellipse cx="214" cy="118" rx="5" ry="18" fill="#4a7a30" transform="rotate(-12 214 118)"/>
  <ellipse cx="214" cy="130" rx="4" ry="15" fill="#5a8a40" transform="rotate(12 214 130)"/>
  <ellipse cx="214" cy="145" rx="4" ry="14" fill="#4a7a30" transform="rotate(-6 214 145)"/>
  <path d="M 210 80 Q 214 60 218 80" fill="#5a8a40"/>
  <!-- Hadass (left) -->
  <rect x="198" y="110" width="5" height="100" fill="#3a6020" rx="3"/>
  <ellipse cx="195" cy="120" rx="8" ry="5" fill="#4a7a30" transform="rotate(-30 195 120)"/>
  <ellipse cx="197" cy="132" rx="8" ry="5" fill="#3a6020" transform="rotate(-20 197 132)"/>
  <ellipse cx="195" cy="144" rx="8" ry="5" fill="#4a7a30" transform="rotate(-35 195 144)"/>
  <ellipse cx="197" cy="158" rx="7" ry="4" fill="#3a6020" transform="rotate(-25 197 158)"/>
  <ellipse cx="196" cy="172" rx="7" ry="4" fill="#4a7a30" transform="rotate(-30 196 172)"/>
  <ellipse cx="197" cy="186" rx="6" ry="4" fill="#3a6020" transform="rotate(-20 197 186)"/>
  <!-- Aravah (right) -->
  <rect x="226" y="115" width="5" height="100" fill="#3a6020" rx="3"/>
  <ellipse cx="234" cy="122" rx="10" ry="4" fill="#4a7a30" transform="rotate(25 234 122)"/>
  <ellipse cx="232" cy="136" rx="10" ry="4" fill="#3a6020" transform="rotate(18 232 136)"/>
  <ellipse cx="234" cy="150" rx="10" ry="4" fill="#4a7a30" transform="rotate(28 234 150)"/>
  <ellipse cx="232" cy="164" rx="9" ry="4" fill="#3a6020" transform="rotate(22 232 164)"/>
  <ellipse cx="234" cy="178" rx="9" ry="4" fill="#4a7a30" transform="rotate(25 234 178)"/>
  <ellipse cx="232" cy="192" rx="8" ry="4" fill="#3a6020" transform="rotate(18 232 192)"/>
  <!-- Binding -->
  <rect x="196" y="205" width="38" height="7" fill="#8B6914" rx="3"/>
  <rect x="196" y="215" width="38" height="7" fill="#8B6914" rx="3"/>
  <rect x="196" y="225" width="38" height="6" fill="#8B6914" rx="3"/>

  <!-- === MENORAH (right) === -->
  <g transform="translate(270, 55)">
    <rect x="10" y="185" width="80" height="10" fill="#8B6914" rx="4"/>
    <rect x="22" y="175" width="56" height="12" fill="#8B6914" rx="3"/>
    <rect x="44" y="60" width="12" height="118" fill="#8B6914" rx="3"/>
    <path d="M 50 130 Q 14 110 14 75" fill="none" stroke="#8B6914" stroke-width="8" stroke-linecap="round"/>
    <path d="M 50 130 Q 28 118 28 90" fill="none" stroke="#8B6914" stroke-width="8" stroke-linecap="round"/>
    <path d="M 50 130 Q 72 118 72 90" fill="none" stroke="#8B6914" stroke-width="8" stroke-linecap="round"/>
    <path d="M 50 130 Q 86 110 86 75" fill="none" stroke="#8B6914" stroke-width="8" stroke-linecap="round"/>
    <circle cx="14" cy="75" r="5" fill="#a07820"/>
    <circle cx="28" cy="90" r="5" fill="#a07820"/>
    <circle cx="50" cy="62" r="5" fill="#a07820"/>
    <circle cx="72" cy="90" r="5" fill="#a07820"/>
    <circle cx="86" cy="75" r="5" fill="#a07820"/>
    <rect x="8" y="64" width="12" height="8" fill="#744210" rx="2"/>
    <rect x="22" y="79" width="12" height="8" fill="#744210" rx="2"/>
    <rect x="44" y="52" width="12" height="8" fill="#744210" rx="2"/>
    <rect x="66" y="79" width="12" height="8" fill="#744210" rx="2"/>
    <rect x="80" y="64" width="12" height="8" fill="#744210" rx="2"/>
    <ellipse cx="14" cy="60" rx="4" ry="7" fill="#f5a623" opacity="0.9"/>
    <ellipse cx="14" cy="57" rx="2" ry="4" fill="#fff5d0" opacity="0.8"/>
    <ellipse cx="28" cy="75" rx="4" ry="7" fill="#f5a623" opacity="0.9"/>
    <ellipse cx="28" cy="72" rx="2" ry="4" fill="#fff5d0" opacity="0.8"/>
    <ellipse cx="50" cy="48" rx="5" ry="8" fill="#f5a623" opacity="0.9"/>
    <ellipse cx="50" cy="44" rx="2.5" ry="5" fill="#fff5d0" opacity="0.8"/>
    <ellipse cx="72" cy="75" rx="4" ry="7" fill="#f5a623" opacity="0.9"/>
    <ellipse cx="72" cy="72" rx="2" ry="4" fill="#fff5d0" opacity="0.8"/>
    <ellipse cx="86" cy="60" rx="4" ry="7" fill="#f5a623" opacity="0.9"/>
    <ellipse cx="86" cy="57" rx="2" ry="4" fill="#fff5d0" opacity="0.8"/>
  </g>
</svg>
