<svg xmlns="http://www.w3.org/2000/svg" viewBox="0 0 400 300" width="400" height="300">
  <!-- Background -->
  <rect width="400" height="300" fill="#f5e6d3"/>
  <!-- Ground -->
  <rect x="0" y="230" width="400" height="70" fill="#c4a882"/>
  <ellipse cx="60" cy="230" rx="30" ry="8" fill="#8B6914" opacity="0.4"/>
  <ellipse cx="170" cy="232" rx="25" ry="7" fill="#8B6914" opacity="0.3"/>
  <ellipse cx="300" cy="231" rx="28" ry="7" fill="#8B6914" opacity="0.35"/>
  <ellipse cx="360" cy="229" rx="22" ry="6" fill="#8B6914" opacity="0.3"/>
  <!-- HEIFER BODY -->
  <ellipse cx="205" cy="185" rx="95" ry="52" fill="#8B2500"/>
  <ellipse cx="195" cy="172" rx="70" ry="32" fill="#a03010" opacity="0.5"/>
  <!-- Neck -->
  <ellipse cx="118" cy="170" rx="30" ry="22" fill="#8B2500" transform="rotate(-20 118 170)"/>
  <!-- Head -->
  <ellipse cx="92" cy="148" rx="36" ry="28" fill="#8B2500"/>
  <ellipse cx="84" cy="142" rx="22" ry="18" fill="#a03010" opacity="0.4"/>
  <!-- Snout -->
  <ellipse cx="64" cy="162" rx="20" ry="14" fill="#7a2000"/>
  <ellipse cx="57" cy="165" rx="5" ry="3" fill="#5a1500"/>
  <ellipse cx="71" cy="165" rx="5" ry="3" fill="#5a1500"/>
  <!-- Eye -->
  <ellipse cx="84" cy="138" rx="8" ry="7" fill="#2d1a0a"/>
  <circle cx="87" cy="136" r="2" fill="#ffffff" opacity="0.7"/>
  <!-- Ears -->
  <ellipse cx="102" cy="122" rx="10" ry="16" fill="#7a2000" transform="rotate(-20 102 122)"/>
  <ellipse cx="102" cy="122" rx="6" ry="10" fill="#5a1500" transform="rotate(-20 102 122)" opacity="0.6"/>
  <ellipse cx="120" cy="118" rx="8" ry="13" fill="#6a1800" transform="rotate(-10 120 118)"/>
  <!-- Horns -->
  <path d="M 100 115 Q 88 90 95 75" fill="none" stroke="#c4a882" stroke-width="5" stroke-linecap="round"/>
  <path d="M 118 112 Q 112 88 122 76" fill="none" stroke="#c4a882" stroke-width="5" stroke-linecap="round"/>
  <!-- Legs -->
  <rect x="135" y="225" width="18" height="40" fill="#7a2000" rx="6"/>
  <ellipse cx="144" cy="265" rx="11" ry="6" fill="#3a1000"/>
  <rect x="158" y="225" width="18" height="38" fill="#7a2000" rx="6"/>
  <ellipse cx="167" cy="263" rx="11" ry="6" fill="#3a1000"/>
  <rect x="250" y="225" width="18" height="42" fill="#7a2000" rx="6"/>
  <ellipse cx="259" cy="267" rx="11" ry="6" fill="#3a1000"/>
  <rect x="275" y="223" width="18" height="40" fill="#7a2000" rx="6"/>
  <ellipse cx="284" cy="263" rx="11" ry="6" fill="#3a1000"/>
  <!-- Tail -->
  <path d="M 298 190 Q 330 175 325 155 Q 320 140 335 132" fill="none" stroke="#7a2000" stroke-width="8" stroke-linecap="round"/>
  <ellipse cx="338" cy="128" rx="10" ry="14" fill="#5a1500" transform="rotate(15 338 128)"/>
  <!-- Udder -->
  <ellipse cx="215" cy="232" rx="18" ry="8" fill="#c4855a" opacity="0.6"/>
  <!-- Water vessel -->
  <ellipse cx="340" cy="218" rx="20" ry="8" fill="#8B6914" opacity="0.7"/>
  <rect x="322" y="160" width="36" height="60" fill="#8B6914" rx="4" opacity="0.7"/>
  <ellipse cx="340" cy="160" rx="18" ry="7" fill="#a07820" opacity="0.7"/>
  <ellipse cx="340" cy="162" rx="14" ry="4" fill="#1a365d" opacity="0.6"/>
  <!-- Hyssop branch -->
  <rect x="348" y="140" width="4" height="50" fill="#744210" rx="2" opacity="0.8"/>
  <ellipse cx="355" cy="145" rx="8" ry="4" fill="#4a7a30" opacity="0.7" transform="rotate(-20 355 145)"/>
  <ellipse cx="360" cy="152" rx="7" ry="3" fill="#4a7a30" opacity="0.7" transform="rotate(10 360 152)"/>
  <ellipse cx="352" cy="155" rx="7" ry="3" fill="#4a7a30" opacity="0.7" transform="rotate(-30 352 155)"/>
</svg>
