<svg xmlns="http://www.w3.org/2000/svg" viewBox="0 0 400 300">
  <defs>
    <linearGradient id="skyGrad" x1="0" y1="0" x2="0" y2="1">
      <stop offset="0%" stop-color="#1a365d"/>
      <stop offset="100%" stop-color="#2d4a7a"/>
    </linearGradient>
    <linearGradient id="stoneGrad" x1="0" y1="0" x2="0" y2="1">
      <stop offset="0%" stop-color="#d4b896"/>
      <stop offset="100%" stop-color="#b89a74"/>
    </linearGradient>
    <linearGradient id="towerGrad" x1="0" y1="0" x2="0" y2="1">
      <stop offset="0%" stop-color="#c8a878"/>
      <stop offset="100%" stop-color="#a07848"/>
    </linearGradient>
    <linearGradient id="groundGrad" x1="0" y1="0" x2="0" y2="1">
      <stop offset="0%" stop-color="#8B6914"/>
      <stop offset="100%" stop-color="#744210"/>
    </linearGradient>
  </defs>
  <!-- Night sky -->
  <rect width="400" height="300" fill="url(#skyGrad)"/>
  <!-- Stars -->
  <circle cx="40" cy="25" r="1.5" fill="#f5e6d3" opacity="0.8"/>
  <circle cx="90" cy="15" r="1" fill="#f5e6d3" opacity="0.6"/>
  <circle cx="150" cy="30" r="1.5" fill="#f5e6d3" opacity="0.7"/>
  <circle cx="220" cy="12" r="1" fill="#f5e6d3" opacity="0.9"/>
  <circle cx="280" cy="28" r="1.5" fill="#f5e6d3" opacity="0.6"/>
  <circle cx="60" cy="50" r="1" fill="#f5e6d3" opacity="0.4"/>
  <circle cx="170" cy="18" r="1" fill="#f5e6d3" opacity="0.5"/>
  <circle cx="310" cy="42" r="1" fill="#f5e6d3" opacity="0.5"/>
  <!-- Moon crescent -->
  <circle cx="332" cy="48" r="20" fill="#1a365d"/>
  <circle cx="323" cy="43" r="16" fill="#2d4a7a"/>
  <!-- Ground -->
  <rect x="0" y="245" width="400" height="55" fill="url(#groundGrad)"/>
  <ellipse cx="200" cy="245" rx="220" ry="10" fill="#5a4208"/>
  <!-- Left wall section -->
  <rect x="0" y="160" width="100" height="90" fill="url(#stoneGrad)"/>
  <line x1="0" y1="178" x2="100" y2="178" stroke="#744210" stroke-width="1" opacity="0.4"/>
  <line x1="0" y1="196" x2="100" y2="196" stroke="#744210" stroke-width="1" opacity="0.4"/>
  <line x1="0" y1="214" x2="100" y2="214" stroke="#744210" stroke-width="1" opacity="0.4"/>
  <line x1="0" y1="232" x2="100" y2="232" stroke="#744210" stroke-width="1" opacity="0.4"/>
  <line x1="33" y1="160" x2="33" y2="250" stroke="#744210" stroke-width="1" opacity="0.3"/>
  <line x1="66" y1="160" x2="66" y2="250" stroke="#744210" stroke-width="1" opacity="0.3"/>
  <!-- Right wall section -->
  <rect x="300" y="160" width="100" height="90" fill="url(#stoneGrad)"/>
  <line x1="300" y1="178" x2="400" y2="178" stroke="#744210" stroke-width="1" opacity="0.4"/>
  <line x1="300" y1="196" x2="400" y2="196" stroke="#744210" stroke-width="1" opacity="0.4"/>
  <line x1="300" y1="214" x2="400" y2="214" stroke="#744210" stroke-width="1" opacity="0.4"/>
  <line x1="300" y1="232" x2="400" y2="232" stroke="#744210" stroke-width="1" opacity="0.4"/>
  <line x1="333" y1="160" x2="333" y2="250" stroke="#744210" stroke-width="1" opacity="0.3"/>
  <line x1="366" y1="160" x2="366" y2="250" stroke="#744210" stroke-width="1" opacity="0.3"/>
  <!-- Left wall crenellations -->
  <rect x="2" y="148" width="14" height="16" fill="url(#stoneGrad)"/>
  <rect x="22" y="148" width="14" height="16" fill="url(#stoneGrad)"/>
  <rect x="42" y="148" width="14" height="16" fill="url(#stoneGrad)"/>
  <rect x="62" y="148" width="14" height="16" fill="url(#stoneGrad)"/>
  <rect x="82" y="148" width="14" height="16" fill="url(#stoneGrad)"/>
  <!-- Right wall crenellations -->
  <rect x="306" y="148" width="14" height="16" fill="url(#stoneGrad)"/>
  <rect x="326" y="148" width="14" height="16" fill="url(#stoneGrad)"/>
  <rect x="346" y="148" width="14" height="16" fill="url(#stoneGrad)"/>
  <rect x="366" y="148" width="14" height="16" fill="url(#stoneGrad)"/>
  <rect x="386" y="148" width="14" height="16" fill="url(#stoneGrad)"/>
  <!-- Left tower body -->
  <rect x="80" y="90" width="70" height="160" fill="url(#towerGrad)"/>
  <line x1="80" y1="112" x2="150" y2="112" stroke="#744210" stroke-width="1" opacity="0.35"/>
  <line x1="80" y1="134" x2="150" y2="134" stroke="#744210" stroke-width="1" opacity="0.35"/>
  <line x1="80" y1="156" x2="150" y2="156" stroke="#744210" stroke-width="1" opacity="0.35"/>
  <line x1="80" y1="178" x2="150" y2="178" stroke="#744210" stroke-width="1" opacity="0.35"/>
  <line x1="80" y1="200" x2="150" y2="200" stroke="#744210" stroke-width="1" opacity="0.35"/>
  <line x1="80" y1="222" x2="150" y2="222" stroke="#744210" stroke-width="1" opacity="0.35"/>
  <line x1="115" y1="90" x2="115" y2="250" stroke="#744210" stroke-width="1" opacity="0.25"/>
  <!-- Left tower window (arched) -->
  <rect x="100" y="165" width="16" height="24" rx="8" ry="4" fill="#1a365d"/>
  <rect x="101" y="166" width="14" height="10" rx="7" ry="3" fill="#2d4a7a" opacity="0.6"/>
  <!-- Left tower crenellations -->
  <rect x="80" y="77" width="14" height="16" fill="url(#towerGrad)"/>
  <rect x="100" y="77" width="14" height="16" fill="url(#towerGrad)"/>
  <rect x="120" y="77" width="14" height="16" fill="url(#towerGrad)"/>
  <rect x="136" y="77" width="14" height="16" fill="url(#towerGrad)"/>
  <!-- Right tower body -->
  <rect x="250" y="90" width="70" height="160" fill="url(#towerGrad)"/>
  <line x1="250" y1="112" x2="320" y2="112" stroke="#744210" stroke-width="1" opacity="0.35"/>
  <line x1="250" y1="134" x2="320" y2="134" stroke="#744210" stroke-width="1" opacity="0.35"/>
  <line x1="250" y1="156" x2="320" y2="156" stroke="#744210" stroke-width="1" opacity="0.35"/>
  <line x1="250" y1="178" x2="320" y2="178" stroke="#744210" stroke-width="1" opacity="0.35"/>
  <line x1="250" y1="200" x2="320" y2="200" stroke="#744210" stroke-width="1" opacity="0.35"/>
  <line x1="250" y1="222" x2="320" y2="222" stroke="#744210" stroke-width="1" opacity="0.35"/>
  <line x1="285" y1="90" x2="285" y2="250" stroke="#744210" stroke-width="1" opacity="0.25"/>
  <!-- Right tower window -->
  <rect x="270" y="165" width="16" height="24" rx="8" ry="4" fill="#1a365d"/>
  <rect x="271" y="166" width="14" height="10" rx="7" ry="3" fill="#2d4a7a" opacity="0.6"/>
  <!-- Right tower crenellations -->
  <rect x="250" y="77" width="14" height="16" fill="url(#towerGrad)"/>
  <rect x="270" y="77" width="14" height="16" fill="url(#towerGrad)"/>
  <rect x="290" y="77" width="14" height="16" fill="url(#towerGrad)"/>
  <rect x="306" y="77" width="14" height="16" fill="url(#towerGrad)"/>
  <!-- Central gate fill -->
  <rect x="148" y="170" width="104" height="80" fill="#1a365d" opacity="0.95"/>
  <!-- Gate arch -->
  <ellipse cx="200" cy="170" rx="52" ry="32" fill="#2d3748"/>
  <ellipse cx="200" cy="170" rx="49" ry="29" fill="#1a365d" opacity="0.9"/>
  <!-- Keystone -->
  <polygon points="200,141 209,157 191,157" fill="#8B6914"/>
  <!-- Gate doors -->
  <rect x="153" y="185" width="44" height="65" rx="2" fill="#744210" opacity="0.8"/>
  <rect x="203" y="185" width="44" height="65" rx="2" fill="#744210" opacity="0.8"/>
  <!-- Door detail lines -->
  <line x1="175" y1="195" x2="175" y2="245" stroke="#8B6914" stroke-width="1" opacity="0.4"/>
  <line x1="153" y1="218" x2="197" y2="218" stroke="#8B6914" stroke-width="1" opacity="0.4"/>
  <line x1="203" y1="218" x2="247" y2="218" stroke="#8B6914" stroke-width="1" opacity="0.4"/>
  <line x1="225" y1="195" x2="225" y2="245" stroke="#8B6914" stroke-width="1" opacity="0.4"/>
  <!-- Door handles -->
  <circle cx="196" cy="215" r="4" fill="#8B6914"/>
  <circle cx="204" cy="215" r="4" fill="#8B6914"/>
  <!-- Connecting wall stub left -->
  <rect x="148" y="160" width="5" height="90" fill="url(#stoneGrad)"/>
  <!-- Connecting wall stub right -->
  <rect x="247" y="160" width="5" height="90" fill="url(#stoneGrad)"/>
  <!-- Gate crenellations -->
  <rect x="153" y="148" width="14" height="16" fill="url(#stoneGrad)"/>
  <rect x="173" y="148" width="14" height="16" fill="url(#stoneGrad)"/>
  <rect x="213" y="148" width="14" height="16" fill="url(#stoneGrad)"/>
  <rect x="233" y="148" width="14" height="16" fill="url(#stoneGrad)"/>
  <!-- Torch left tower -->
  <rect x="88" y="116" width="4" height="12" fill="#744210"/>
  <ellipse cx="90" cy="114" rx="5" ry="7" fill="#8B6914"/>
  <ellipse cx="90" cy="110" rx="3" ry="5" fill="#f5e6d3" opacity="0.9"/>
  <!-- Torch right tower -->
  <rect x="308" y="116" width="4" height="12" fill="#744210"/>
  <ellipse cx="310" cy="114" rx="5" ry="7" fill="#8B6914"/>
  <ellipse cx="310" cy="110" rx="3" ry="5" fill="#f5e6d3" opacity="0.9"/>
</svg>
